# xmcd
#
# Track frame offsets: 
#        150
#        3188
#        16163
#        30038
#        35738
#        48976
#        65626
#        78152
#        89928
#        96189
#        104102
#        114977
#        126040
#        140853
#        150641
#        163317
#        175542
#        191067
#        199354
#        214242
#        231303
#        250391
#        265691
#        275591
#        301767
#        308667
#        322130
#        333717
#
# Disc length: 4664 seconds
#
# Revision: 0
# Processed by: cddbd v1.5.2PL0 Copyright (c) Steve Scherf et al.
# Submitted via: ExactAudioCopy v1.0b1
#
DISCID=9612361c
DTITLE=Various Artist - U-strummit at the Gryphon D'Or
DYEAR=2010
DGENRE=Country
TTITLE0=Introduction by Lew Dite
TTITLE1=Travellin' Man - Lew Dite
TTITLE2=I'm A Rover - Raymond Crooke
TTITLE3=You Can't Shush Katie - Ukulele Katie
TTITLE4=When I Get My Reward - Bob Comeau
TTITLE5=Chicken - Virginia Dipierro
TTITLE6=Speed of the Sound of Loneliness - Leo Lepore
TTITLE7=I Still Miss Someone - Peter Rutherford
TTITLE8=Classical Guitar - Robert Jaggers
TTITLE9=A "Blue" Grasshopper - Terry Joe Banjo
TTITLE10=I Wonder Where You Are Tonight - Leo Fontaine
TTITLE11=Que Sera Sera - Little Jeannie
TTITLE12=I Wish I Was In Sherbrooke Now - Les Savage
TTITLE13=He Was Only A Hobo - Johnny Fast
TTITLE14=Red River Valley - Eddie Blake
TTITLE15=Sixteen Tons - Deacon George
TTITLE16=My Guitar Gently Weeps - Alex Nesrallah
TTITLE17=I Will Cross the Alps - Isabelle Delage
TTITLE18=Where Have All the Flowers Gone  - Vincent Griffin
TTITLE19=The Orphan Train - Adrien Doucette
TTITLE20=Hickory Wind - Joey Mulrooney
TTITLE21=Juke Box Said He Saved the Day - Craig Morrison
TTITLE22=Old Time Acapella - MAry Stockland
TTITLE23=Tangled Up In Blue - Patrick Mastery
TTITLE24=Five Foot Two - Steve Comtois
TTITLE25=Three Wooden Crosses - Jim Collette
TTITLE26=Proud Mary - Jamey Baron
TTITLE27=Small Pipes - Wolf Poll
EXTD=
EXTT0=
EXTT1=
EXTT2=
EXTT3=
EXTT4=
EXTT5=
EXTT6=
EXTT7=
EXTT8=
EXTT9=
EXTT10=
EXTT11=
EXTT12=
EXTT13=
EXTT14=
EXTT15=
EXTT16=
EXTT17=
EXTT18=
EXTT19=
EXTT20=
EXTT21=
EXTT22=
EXTT23=
EXTT24=
EXTT25=
EXTT26=
EXTT27=
PLAYORDER=
